<svg width="684" height="720" viewBox="0 0 684 720" fill="none" xmlns="http://www.w3.org/2000/svg">
<path d="M0.268679 234.828C-6.53132 90.0278 117.435 -3.17223 180.269 -31.6722C858.769 -268.172 756.769 300.328 761.769 349.828C766.769 399.328 764.269 560.828 554.269 681.328C344.269 801.828 228.269 720.328 187.269 691.328C146.269 662.328 8.76868 415.828 0.268679 234.828Z" fill="#FFC60A"/>
<path d="M0.268679 234.828C-6.53132 90.0278 117.435 -3.17223 180.269 -31.6722C858.769 -268.172 756.769 300.328 761.769 349.828C766.769 399.328 764.269 560.828 554.269 681.328C344.269 801.828 228.269 720.328 187.269 691.328C146.269 662.328 8.76868 415.828 0.268679 234.828Z" fill="url(#paint0_linear)"/>
<defs>
<linearGradient id="paint0_linear" x1="500.5" y1="249" x2="351" y2="616" gradientUnits="userSpaceOnUse">
<stop stop-color="#F79F00"/>
<stop offset="1" stop-color="#FFC60A"/>
</linearGradient>
</defs>
</svg>
